<?xml version="1.0" encoding="UTF-8"?>
<svg id="Layer_2" data-name="Layer 2" xmlns="http://www.w3.org/2000/svg" viewBox="0 0 166.53 45.16">
  <defs>
    <style>
      .cls-1 {
        fill: #3ec7f3;
      }

      .cls-1, .cls-2 {
        stroke-width: 0px;
      }

      .cls-2 {
        fill: #fff;
      }
    </style>
  </defs>
  <g id="Artwork">
    <path class="cls-2" d="M125.03,10.7h3.42l-15.96,17.49v6.27h-2.64v-6.27l-15.96-17.49h3.42l.08.08,13.78,15.06,13.86-15.14ZM163.86,10.7v20.95l-23.06-20.88-.07-.07h-3.35v23.75h2.68V13.51l23.09,20.88.07.07h3.31V10.7h-2.68ZM87.6,14.85c-.35-.9-.92-1.67-1.69-2.28-.77-.61-1.78-1.07-3-1.39-1.21-.31-2.72-.47-4.48-.47h-20.54v2.58h20.11c1.39,0,2.58.09,3.52.26.92.17,1.68.45,2.24.82.55.37.95.84,1.18,1.41.24.59.36,1.3.36,2.12,0,1.07-.12,1.94-.35,2.58-.23.63-.6,1.1-1.14,1.45-.55.35-1.29.6-2.2.72-.93.13-2.12.2-3.52.2h-20.2v11.6h2.68v-9.03h18.03c1.6,0,3.01-.11,4.18-.34,1.19-.23,2.2-.63,2.99-1.21.8-.58,1.4-1.37,1.78-2.36.37-.97.57-2.2.57-3.66,0-1.11-.17-2.13-.52-3.01Z"/>
    <g>
      <path class="cls-1" d="M22.58,2.92c10.84,0,19.66,8.82,19.66,19.66s-8.82,19.66-19.66,19.66S2.92,33.42,2.92,22.58,11.74,2.92,22.58,2.92M22.58,0C10.11,0,0,10.11,0,22.58s10.11,22.58,22.58,22.58,22.58-10.11,22.58-22.58S35.05,0,22.58,0h0Z"/>
      <path class="cls-1" d="M35.88,17.37c-.28-.74-.75-1.37-1.39-1.87-.62-.49-1.43-.87-2.42-1.12-.96-.25-2.15-.37-3.54-.37H12.37v2.47h15.84c1.07,0,1.97.07,2.69.2.68.13,1.24.33,1.65.6.39.26.66.58.83.99.17.43.26.95.26,1.56,0,.8-.09,1.45-.26,1.92-.16.43-.42.76-.79,1-.4.26-.94.43-1.61.53-.71.1-1.62.15-2.7.15h-15.92v9.48h2.55v-7.01h13.76c1.26,0,2.37-.09,3.29-.27.96-.18,1.77-.51,2.42-.98.66-.48,1.15-1.13,1.47-1.93.3-.78.45-1.76.45-2.93,0-.89-.14-1.71-.42-2.42Z"/>
    </g>
  </g>
</svg>